<?xml version="1.0" encoding="UTF-8" standalone="no"?>
<!DOCTYPE svg PUBLIC "-//W3C//DTD SVG 1.1//EN"
 "http://www.w3.org/Graphics/SVG/1.1/DTD/svg11.dtd">
<!-- Generated by graphviz version 12.2.1 (20241206.2353)
 -->
<!-- Pages: 1 -->
<svg width="1154pt" height="510pt"
 viewBox="0.00 0.00 1154.00 510.27" xmlns="http://www.w3.org/2000/svg" xmlns:xlink="http://www.w3.org/1999/xlink">
<g id="graph0" class="graph" transform="scale(1 1) rotate(0) translate(4 506.27)">
<polygon fill="white" stroke="none" points="-4,4 -4,-506.27 1150,-506.27 1150,4 -4,4"/>
<g id="clust1" class="cluster">
<title>cluster1</title>
<path fill="none" stroke="black" d="M20,-149.73C20,-149.73 426,-149.73 426,-149.73 432,-149.73 438,-155.73 438,-161.73 438,-161.73 438,-482.27 438,-482.27 438,-488.27 432,-494.27 426,-494.27 426,-494.27 20,-494.27 20,-494.27 14,-494.27 8,-488.27 8,-482.27 8,-482.27 8,-161.73 8,-161.73 8,-155.73 14,-149.73 20,-149.73"/>
<text text-anchor="middle" x="426.62" y="-156.93" font-family="Times,serif" font-size="14.00">1</text>
</g>
<g id="clust2" class="cluster">
<title>cluster126</title>
<path fill="none" stroke="black" d="M458,-137.82C458,-137.82 1126,-137.82 1126,-137.82 1132,-137.82 1138,-143.82 1138,-149.82 1138,-149.82 1138,-247.63 1138,-247.63 1138,-253.63 1132,-259.63 1126,-259.63 1126,-259.63 458,-259.63 458,-259.63 452,-259.63 446,-253.63 446,-247.63 446,-247.63 446,-149.82 446,-149.82 446,-143.82 452,-137.82 458,-137.82"/>
<text text-anchor="middle" x="1119.88" y="-145.02" font-family="Times,serif" font-size="14.00">126</text>
</g>
<g id="clust3" class="cluster">
<title>cluster46441</title>
<path fill="none" stroke="black" d="M131,-8C131,-8 313,-8 313,-8 319,-8 325,-14 325,-20 325,-20 325,-117.82 325,-117.82 325,-123.82 319,-129.82 313,-129.82 313,-129.82 131,-129.82 131,-129.82 125,-129.82 119,-123.82 119,-117.82 119,-117.82 119,-20 119,-20 119,-14 125,-8 131,-8"/>
<text text-anchor="middle" x="300.12" y="-15.2" font-family="Times,serif" font-size="14.00">46441</text>
</g>
<!-- mu_population_log_odds -->
<g id="node1" class="node">
<title>mu_population_log_odds</title>
<ellipse fill="none" stroke="black" cx="555" cy="-445.61" rx="109.42" ry="40.66"/>
<text text-anchor="middle" x="555" y="-457.06" font-family="Times,serif" font-size="14.00">mu_population_log_odds</text>
<text text-anchor="middle" x="555" y="-440.56" font-family="Times,serif" font-size="14.00">~</text>
<text text-anchor="middle" x="555" y="-424.06" font-family="Times,serif" font-size="14.00">Normal</text>
</g>
<!-- p_population -->
<g id="node2" class="node">
<title>p_population</title>
<polygon fill="none" stroke="black" points="600.12,-357.04 509.88,-357.04 509.88,-299.54 600.12,-299.54 600.12,-357.04"/>
<text text-anchor="middle" x="555" y="-339.74" font-family="Times,serif" font-size="14.00">p_population</text>
<text text-anchor="middle" x="555" y="-323.24" font-family="Times,serif" font-size="14.00">~</text>
<text text-anchor="middle" x="555" y="-306.74" font-family="Times,serif" font-size="14.00">Deterministic</text>
</g>
<!-- mu_population_log_odds&#45;&gt;p_population -->
<g id="edge7" class="edge">
<title>mu_population_log_odds&#45;&gt;p_population</title>
<path fill="none" stroke="black" d="M555,-404.6C555,-392.89 555,-380.11 555,-368.45"/>
<polygon fill="black" stroke="black" points="558.5,-368.77 555,-358.77 551.5,-368.77 558.5,-368.77"/>
</g>
<!-- mu_asian_log_odds -->
<g id="node4" class="node">
<title>mu_asian_log_odds</title>
<polygon fill="none" stroke="black" points="140.38,-357.04 15.63,-357.04 15.63,-299.54 140.38,-299.54 140.38,-357.04"/>
<text text-anchor="middle" x="78" y="-339.74" font-family="Times,serif" font-size="14.00">mu_asian_log_odds</text>
<text text-anchor="middle" x="78" y="-323.24" font-family="Times,serif" font-size="14.00">~</text>
<text text-anchor="middle" x="78" y="-306.74" font-family="Times,serif" font-size="14.00">Deterministic</text>
</g>
<!-- mu_population_log_odds&#45;&gt;mu_asian_log_odds -->
<g id="edge5" class="edge">
<title>mu_population_log_odds&#45;&gt;mu_asian_log_odds</title>
<path fill="none" stroke="black" d="M479.68,-415.67C467.23,-411.61 454.35,-407.84 442,-404.95 314.69,-375.13 274.4,-409.22 150,-368.95 144.31,-367.11 138.56,-364.81 132.92,-362.25"/>
<polygon fill="black" stroke="black" points="134.8,-359.28 124.27,-358.07 131.75,-365.58 134.8,-359.28"/>
</g>
<!-- mu_white_log_odds -->
<g id="node5" class="node">
<title>mu_white_log_odds</title>
<polygon fill="none" stroke="black" points="285.5,-357.04 158.5,-357.04 158.5,-299.54 285.5,-299.54 285.5,-357.04"/>
<text text-anchor="middle" x="222" y="-339.74" font-family="Times,serif" font-size="14.00">mu_white_log_odds</text>
<text text-anchor="middle" x="222" y="-323.24" font-family="Times,serif" font-size="14.00">~</text>
<text text-anchor="middle" x="222" y="-306.74" font-family="Times,serif" font-size="14.00">Deterministic</text>
</g>
<!-- mu_population_log_odds&#45;&gt;mu_white_log_odds -->
<g id="edge1" class="edge">
<title>mu_population_log_odds&#45;&gt;mu_white_log_odds</title>
<path fill="none" stroke="black" d="M477.82,-416.4C465.89,-412.37 453.66,-408.42 442,-404.95 377.52,-385.79 357.74,-393.21 295,-368.95 289.97,-367.01 284.85,-364.78 279.77,-362.4"/>
<polygon fill="black" stroke="black" points="281.34,-359.27 270.82,-358.01 278.25,-365.56 281.34,-359.27"/>
</g>
<!-- mu_black_log_odds -->
<g id="node9" class="node">
<title>mu_black_log_odds</title>
<polygon fill="none" stroke="black" points="430.12,-357.04 303.88,-357.04 303.88,-299.54 430.12,-299.54 430.12,-357.04"/>
<text text-anchor="middle" x="367" y="-339.74" font-family="Times,serif" font-size="14.00">mu_black_log_odds</text>
<text text-anchor="middle" x="367" y="-323.24" font-family="Times,serif" font-size="14.00">~</text>
<text text-anchor="middle" x="367" y="-306.74" font-family="Times,serif" font-size="14.00">Deterministic</text>
</g>
<!-- mu_population_log_odds&#45;&gt;mu_black_log_odds -->
<g id="edge3" class="edge">
<title>mu_population_log_odds&#45;&gt;mu_black_log_odds</title>
<path fill="none" stroke="black" d="M499.1,-410.32C474.94,-395.5 446.73,-378.2 422.6,-363.4"/>
<polygon fill="black" stroke="black" points="424.53,-360.47 414.17,-358.23 420.87,-366.44 424.53,-360.47"/>
</g>
<!-- population_rates_obs -->
<g id="node16" class="node">
<title>population_rates_obs</title>
<ellipse fill="lightgrey" stroke="black" cx="1037" cy="-210.98" rx="92.98" ry="40.66"/>
<text text-anchor="middle" x="1037" y="-222.43" font-family="Times,serif" font-size="14.00">population_rates_obs</text>
<text text-anchor="middle" x="1037" y="-205.93" font-family="Times,serif" font-size="14.00">~</text>
<text text-anchor="middle" x="1037" y="-189.43" font-family="Times,serif" font-size="14.00">Normal</text>
</g>
<!-- mu_population_log_odds&#45;&gt;population_rates_obs -->
<g id="edge11" class="edge">
<title>mu_population_log_odds&#45;&gt;population_rates_obs</title>
<path fill="none" stroke="black" d="M651.14,-425.68C702.79,-413.43 766.63,-394.87 820,-368.95 882.48,-338.6 945.92,-290.23 987.94,-255.19"/>
<polygon fill="black" stroke="black" points="990.01,-258.02 995.41,-248.91 985.51,-252.66 990.01,-258.02"/>
</g>
<!-- sigma -->
<g id="node3" class="node">
<title>sigma</title>
<ellipse fill="none" stroke="black" cx="755" cy="-328.29" rx="55.86" ry="40.66"/>
<text text-anchor="middle" x="755" y="-339.74" font-family="Times,serif" font-size="14.00">sigma</text>
<text text-anchor="middle" x="755" y="-323.24" font-family="Times,serif" font-size="14.00">~</text>
<text text-anchor="middle" x="755" y="-306.74" font-family="Times,serif" font-size="14.00">Halfnormal</text>
</g>
<!-- white_rates_obs -->
<g id="node13" class="node">
<title>white_rates_obs</title>
<ellipse fill="lightgrey" stroke="black" cx="689" cy="-210.98" rx="73.36" ry="40.66"/>
<text text-anchor="middle" x="689" y="-222.43" font-family="Times,serif" font-size="14.00">white_rates_obs</text>
<text text-anchor="middle" x="689" y="-205.93" font-family="Times,serif" font-size="14.00">~</text>
<text text-anchor="middle" x="689" y="-189.43" font-family="Times,serif" font-size="14.00">Normal</text>
</g>
<!-- sigma&#45;&gt;white_rates_obs -->
<g id="edge18" class="edge">
<title>sigma&#45;&gt;white_rates_obs</title>
<path fill="none" stroke="black" d="M733.75,-290.17C728.27,-280.59 722.29,-270.14 716.54,-260.09"/>
<polygon fill="black" stroke="black" points="719.64,-258.47 711.64,-251.53 713.57,-261.95 719.64,-258.47"/>
</g>
<!-- black_rates_obs -->
<g id="node14" class="node">
<title>black_rates_obs</title>
<ellipse fill="lightgrey" stroke="black" cx="853" cy="-210.98" rx="72.83" ry="40.66"/>
<text text-anchor="middle" x="853" y="-222.43" font-family="Times,serif" font-size="14.00">black_rates_obs</text>
<text text-anchor="middle" x="853" y="-205.93" font-family="Times,serif" font-size="14.00">~</text>
<text text-anchor="middle" x="853" y="-189.43" font-family="Times,serif" font-size="14.00">Normal</text>
</g>
<!-- sigma&#45;&gt;black_rates_obs -->
<g id="edge14" class="edge">
<title>sigma&#45;&gt;black_rates_obs</title>
<path fill="none" stroke="black" d="M783.87,-293.32C793.6,-281.88 804.6,-268.93 814.92,-256.79"/>
<polygon fill="black" stroke="black" points="817.5,-259.16 821.31,-249.27 812.16,-254.62 817.5,-259.16"/>
</g>
<!-- asian_rates_obs -->
<g id="node15" class="node">
<title>asian_rates_obs</title>
<ellipse fill="lightgrey" stroke="black" cx="526" cy="-210.98" rx="71.77" ry="40.66"/>
<text text-anchor="middle" x="526" y="-222.43" font-family="Times,serif" font-size="14.00">asian_rates_obs</text>
<text text-anchor="middle" x="526" y="-205.93" font-family="Times,serif" font-size="14.00">~</text>
<text text-anchor="middle" x="526" y="-189.43" font-family="Times,serif" font-size="14.00">Normal</text>
</g>
<!-- sigma&#45;&gt;asian_rates_obs -->
<g id="edge16" class="edge">
<title>sigma&#45;&gt;asian_rates_obs</title>
<path fill="none" stroke="black" d="M707.08,-306.88C677.81,-294.05 639.82,-276.74 607,-259.63 599.55,-255.76 591.83,-251.51 584.24,-247.2"/>
<polygon fill="black" stroke="black" points="586.1,-244.24 575.68,-242.29 582.61,-250.3 586.1,-244.24"/>
</g>
<!-- sigma&#45;&gt;population_rates_obs -->
<g id="edge12" class="edge">
<title>sigma&#45;&gt;population_rates_obs</title>
<path fill="none" stroke="black" d="M805.07,-309.65C841.41,-296.56 891.61,-277.89 935,-259.63 944.76,-255.53 954.96,-251.02 964.97,-246.48"/>
<polygon fill="black" stroke="black" points="966.31,-249.71 973.94,-242.37 963.39,-243.35 966.31,-249.71"/>
</g>
<!-- p_asian -->
<g id="node10" class="node">
<title>p_asian</title>
<polygon fill="none" stroke="black" points="141.12,-239.73 50.88,-239.73 50.88,-182.23 141.12,-182.23 141.12,-239.73"/>
<text text-anchor="middle" x="96" y="-222.43" font-family="Times,serif" font-size="14.00">p_asian</text>
<text text-anchor="middle" x="96" y="-205.93" font-family="Times,serif" font-size="14.00">~</text>
<text text-anchor="middle" x="96" y="-189.43" font-family="Times,serif" font-size="14.00">Deterministic</text>
</g>
<!-- mu_asian_log_odds&#45;&gt;p_asian -->
<g id="edge10" class="edge">
<title>mu_asian_log_odds&#45;&gt;p_asian</title>
<path fill="none" stroke="black" d="M82.4,-299.08C84.66,-284.6 87.46,-266.72 89.92,-250.94"/>
<polygon fill="black" stroke="black" points="93.32,-251.81 91.41,-241.39 86.41,-250.73 93.32,-251.81"/>
</g>
<!-- mu_asian_log_odds&#45;&gt;asian_rates_obs -->
<g id="edge15" class="edge">
<title>mu_asian_log_odds&#45;&gt;asian_rates_obs</title>
<path fill="none" stroke="black" d="M122.46,-299.18C131.3,-294.64 140.73,-290.5 150,-287.63 274.57,-249.16 317.68,-298.89 442,-259.63 451.41,-256.66 460.93,-252.54 470.02,-247.95"/>
<polygon fill="black" stroke="black" points="471.54,-251.1 478.73,-243.32 468.25,-244.92 471.54,-251.1"/>
</g>
<!-- p_white -->
<g id="node8" class="node">
<title>p_white</title>
<polygon fill="none" stroke="black" points="267.12,-239.73 176.88,-239.73 176.88,-182.23 267.12,-182.23 267.12,-239.73"/>
<text text-anchor="middle" x="222" y="-222.43" font-family="Times,serif" font-size="14.00">p_white</text>
<text text-anchor="middle" x="222" y="-205.93" font-family="Times,serif" font-size="14.00">~</text>
<text text-anchor="middle" x="222" y="-189.43" font-family="Times,serif" font-size="14.00">Deterministic</text>
</g>
<!-- mu_white_log_odds&#45;&gt;p_white -->
<g id="edge8" class="edge">
<title>mu_white_log_odds&#45;&gt;p_white</title>
<path fill="none" stroke="black" d="M222,-299.08C222,-284.74 222,-267.07 222,-251.4"/>
<polygon fill="black" stroke="black" points="225.5,-251.41 222,-241.41 218.5,-251.41 225.5,-251.41"/>
</g>
<!-- mu_white_log_odds&#45;&gt;white_rates_obs -->
<g id="edge17" class="edge">
<title>mu_white_log_odds&#45;&gt;white_rates_obs</title>
<path fill="none" stroke="black" d="M267.1,-299.13C276.06,-294.6 285.61,-290.47 295,-287.63 428.27,-247.35 474.33,-301.84 607,-259.63 615.91,-256.8 624.9,-252.88 633.5,-248.49"/>
<polygon fill="black" stroke="black" points="634.91,-251.71 642.05,-243.88 631.59,-245.55 634.91,-251.71"/>
</g>
<!-- beta_asian -->
<g id="node6" class="node">
<title>beta_asian</title>
<ellipse fill="none" stroke="black" cx="78" cy="-445.61" rx="51.62" ry="40.66"/>
<text text-anchor="middle" x="78" y="-457.06" font-family="Times,serif" font-size="14.00">beta_asian</text>
<text text-anchor="middle" x="78" y="-440.56" font-family="Times,serif" font-size="14.00">~</text>
<text text-anchor="middle" x="78" y="-424.06" font-family="Times,serif" font-size="14.00">Normal</text>
</g>
<!-- beta_asian&#45;&gt;mu_asian_log_odds -->
<g id="edge6" class="edge">
<title>beta_asian&#45;&gt;mu_asian_log_odds</title>
<path fill="none" stroke="black" d="M78,-404.6C78,-392.89 78,-380.11 78,-368.45"/>
<polygon fill="black" stroke="black" points="81.5,-368.77 78,-358.77 74.5,-368.77 81.5,-368.77"/>
</g>
<!-- p_black -->
<g id="node7" class="node">
<title>p_black</title>
<polygon fill="none" stroke="black" points="393.12,-239.73 302.88,-239.73 302.88,-182.23 393.12,-182.23 393.12,-239.73"/>
<text text-anchor="middle" x="348" y="-222.43" font-family="Times,serif" font-size="14.00">p_black</text>
<text text-anchor="middle" x="348" y="-205.93" font-family="Times,serif" font-size="14.00">~</text>
<text text-anchor="middle" x="348" y="-189.43" font-family="Times,serif" font-size="14.00">Deterministic</text>
</g>
<!-- individual_status_obs -->
<g id="node17" class="node">
<title>individual_status_obs</title>
<ellipse fill="lightgrey" stroke="black" cx="222" cy="-81.16" rx="94.58" ry="40.66"/>
<text text-anchor="middle" x="222" y="-92.61" font-family="Times,serif" font-size="14.00">individual_status_obs</text>
<text text-anchor="middle" x="222" y="-76.11" font-family="Times,serif" font-size="14.00">~</text>
<text text-anchor="middle" x="222" y="-59.61" font-family="Times,serif" font-size="14.00">Bernoulli</text>
</g>
<!-- p_black&#45;&gt;individual_status_obs -->
<g id="edge19" class="edge">
<title>p_black&#45;&gt;individual_status_obs</title>
<path fill="none" stroke="black" d="M320.35,-181.93C304.38,-165.72 283.92,-144.97 265.8,-126.59"/>
<polygon fill="black" stroke="black" points="268.78,-124.63 259.27,-119.96 263.79,-129.54 268.78,-124.63"/>
</g>
<!-- p_white&#45;&gt;individual_status_obs -->
<g id="edge21" class="edge">
<title>p_white&#45;&gt;individual_status_obs</title>
<path fill="none" stroke="black" d="M222,-181.93C222,-167.72 222,-150.01 222,-133.47"/>
<polygon fill="black" stroke="black" points="225.5,-133.78 222,-123.78 218.5,-133.78 225.5,-133.78"/>
</g>
<!-- mu_black_log_odds&#45;&gt;p_black -->
<g id="edge9" class="edge">
<title>mu_black_log_odds&#45;&gt;p_black</title>
<path fill="none" stroke="black" d="M362.35,-299.08C359.97,-284.6 357.02,-266.72 354.42,-250.94"/>
<polygon fill="black" stroke="black" points="357.93,-250.69 352.85,-241.39 351.02,-251.82 357.93,-250.69"/>
</g>
<!-- mu_black_log_odds&#45;&gt;black_rates_obs -->
<g id="edge13" class="edge">
<title>mu_black_log_odds&#45;&gt;black_rates_obs</title>
<path fill="none" stroke="black" d="M430.47,-305.9C452.57,-299.15 477.68,-292.25 501,-287.63 619.34,-264.19 656.29,-297 771,-259.63 779.89,-256.74 788.87,-252.78 797.46,-248.38"/>
<polygon fill="black" stroke="black" points="798.88,-251.59 806.01,-243.76 795.55,-245.43 798.88,-251.59"/>
</g>
<!-- p_asian&#45;&gt;individual_status_obs -->
<g id="edge20" class="edge">
<title>p_asian&#45;&gt;individual_status_obs</title>
<path fill="none" stroke="black" d="M123.65,-181.93C139.62,-165.72 160.08,-144.97 178.2,-126.59"/>
<polygon fill="black" stroke="black" points="180.21,-129.54 184.73,-119.96 175.22,-124.63 180.21,-129.54"/>
</g>
<!-- beta_white -->
<g id="node11" class="node">
<title>beta_white</title>
<ellipse fill="none" stroke="black" cx="222" cy="-445.61" rx="53.21" ry="40.66"/>
<text text-anchor="middle" x="222" y="-457.06" font-family="Times,serif" font-size="14.00">beta_white</text>
<text text-anchor="middle" x="222" y="-440.56" font-family="Times,serif" font-size="14.00">~</text>
<text text-anchor="middle" x="222" y="-424.06" font-family="Times,serif" font-size="14.00">Normal</text>
</g>
<!-- beta_white&#45;&gt;mu_white_log_odds -->
<g id="edge2" class="edge">
<title>beta_white&#45;&gt;mu_white_log_odds</title>
<path fill="none" stroke="black" d="M222,-404.6C222,-392.89 222,-380.11 222,-368.45"/>
<polygon fill="black" stroke="black" points="225.5,-368.77 222,-358.77 218.5,-368.77 225.5,-368.77"/>
</g>
<!-- beta_black -->
<g id="node12" class="node">
<title>beta_black</title>
<ellipse fill="none" stroke="black" cx="367" cy="-445.61" rx="52.68" ry="40.66"/>
<text text-anchor="middle" x="367" y="-457.06" font-family="Times,serif" font-size="14.00">beta_black</text>
<text text-anchor="middle" x="367" y="-440.56" font-family="Times,serif" font-size="14.00">~</text>
<text text-anchor="middle" x="367" y="-424.06" font-family="Times,serif" font-size="14.00">Normal</text>
</g>
<!-- beta_black&#45;&gt;mu_black_log_odds -->
<g id="edge4" class="edge">
<title>beta_black&#45;&gt;mu_black_log_odds</title>
<path fill="none" stroke="black" d="M367,-404.6C367,-392.89 367,-380.11 367,-368.45"/>
<polygon fill="black" stroke="black" points="370.5,-368.77 367,-358.77 363.5,-368.77 370.5,-368.77"/>
</g>
</g>
</svg>
