<?xml version="1.0" encoding="UTF-8" standalone="no"?>
<!DOCTYPE svg PUBLIC "-//W3C//DTD SVG 1.1//EN"
 "http://www.w3.org/Graphics/SVG/1.1/DTD/svg11.dtd">
<!-- Generated by graphviz version 12.2.1 (20241206.2353)
 -->
<!-- Pages: 1 -->
<svg width="634pt" height="357pt"
 viewBox="0.00 0.00 634.45 357.23" xmlns="http://www.w3.org/2000/svg" xmlns:xlink="http://www.w3.org/1999/xlink">
<g id="graph0" class="graph" transform="scale(1 1) rotate(0) translate(4 353.23)">
<polygon fill="white" stroke="none" points="-4,4 -4,-353.23 630.45,-353.23 630.45,4 -4,4"/>
<g id="clust1" class="cluster">
<title>clusterobs_id (533154)</title>
<path fill="none" stroke="black" d="M20,-114C20,-114 332,-114 332,-114 338,-114 344,-120 344,-126 344,-126 344,-223.82 344,-223.82 344,-229.82 338,-235.82 332,-235.82 332,-235.82 20,-235.82 20,-235.82 14,-235.82 8,-229.82 8,-223.82 8,-223.82 8,-126 8,-126 8,-120 14,-114 20,-114"/>
<text text-anchor="middle" x="291.38" y="-121.2" font-family="Times,serif" font-size="14.00">obs_id (533154)</text>
</g>
<g id="clust2" class="cluster">
<title>clusterindustry (9)</title>
<path fill="none" stroke="black" d="M364,-114C364,-114 492,-114 492,-114 498,-114 504,-120 504,-126 504,-126 504,-329.23 504,-329.23 504,-335.23 498,-341.23 492,-341.23 492,-341.23 364,-341.23 364,-341.23 358,-341.23 352,-335.23 352,-329.23 352,-329.23 352,-126 352,-126 352,-120 358,-114 364,-114"/>
<text text-anchor="middle" x="464.12" y="-121.2" font-family="Times,serif" font-size="14.00">industry (9)</text>
</g>
<g id="clust3" class="cluster">
<title>cluster533154</title>
<path fill="none" stroke="black" d="M188,-8C188,-8 292,-8 292,-8 298,-8 304,-14 304,-20 304,-20 304,-94 304,-94 304,-100 298,-106 292,-106 292,-106 188,-106 188,-106 182,-106 176,-100 176,-94 176,-94 176,-20 176,-20 176,-14 182,-8 188,-8"/>
<text text-anchor="middle" x="275.75" y="-15.2" font-family="Times,serif" font-size="14.00">533154</text>
</g>
<!-- industry_idx_obs -->
<g id="node1" class="node">
<title>industry_idx_obs</title>
<path fill="lightgrey" stroke="black" d="M113.88,-215.91C113.88,-215.91 28.12,-215.91 28.12,-215.91 22.12,-215.91 16.12,-209.91 16.12,-203.91 16.12,-203.91 16.12,-170.41 16.12,-170.41 16.12,-164.41 22.12,-158.41 28.12,-158.41 28.12,-158.41 113.88,-158.41 113.88,-158.41 119.88,-158.41 125.88,-164.41 125.88,-170.41 125.88,-170.41 125.88,-203.91 125.88,-203.91 125.88,-209.91 119.88,-215.91 113.88,-215.91"/>
<text text-anchor="middle" x="71" y="-198.61" font-family="Times,serif" font-size="14.00">industry_idx_obs</text>
<text text-anchor="middle" x="71" y="-182.11" font-family="Times,serif" font-size="14.00">~</text>
<text text-anchor="middle" x="71" y="-165.61" font-family="Times,serif" font-size="14.00">Data</text>
</g>
<!-- p_unemployment -->
<g id="node6" class="node">
<title>p_unemployment</title>
<polygon fill="none" stroke="black" points="296,-98 184,-98 184,-40.5 296,-40.5 296,-98"/>
<text text-anchor="middle" x="240" y="-80.7" font-family="Times,serif" font-size="14.00">p_unemployment</text>
<text text-anchor="middle" x="240" y="-64.2" font-family="Times,serif" font-size="14.00">~</text>
<text text-anchor="middle" x="240" y="-47.7" font-family="Times,serif" font-size="14.00">Deterministic</text>
</g>
<!-- industry_idx_obs&#45;&gt;p_unemployment -->
<g id="edge3" class="edge">
<title>industry_idx_obs&#45;&gt;p_unemployment</title>
<path fill="none" stroke="black" d="M91.02,-158.01C102.56,-143.37 118.1,-126.06 135,-114 146.54,-105.76 159.87,-98.7 173.07,-92.81"/>
<polygon fill="black" stroke="black" points="174.37,-96.06 182.21,-88.92 171.63,-89.62 174.37,-96.06"/>
</g>
<!-- unemployment_status -->
<g id="node2" class="node">
<title>unemployment_status</title>
<ellipse fill="lightgrey" stroke="black" cx="240" cy="-187.16" rx="96.17" ry="40.66"/>
<text text-anchor="middle" x="240" y="-198.61" font-family="Times,serif" font-size="14.00">unemployment_status</text>
<text text-anchor="middle" x="240" y="-182.11" font-family="Times,serif" font-size="14.00">~</text>
<text text-anchor="middle" x="240" y="-165.61" font-family="Times,serif" font-size="14.00">Bernoulli</text>
</g>
<!-- sigma -->
<g id="node3" class="node">
<title>sigma</title>
<ellipse fill="none" stroke="black" cx="569" cy="-304.48" rx="57.45" ry="40.66"/>
<text text-anchor="middle" x="569" y="-315.93" font-family="Times,serif" font-size="14.00">sigma</text>
<text text-anchor="middle" x="569" y="-299.43" font-family="Times,serif" font-size="14.00">~</text>
<text text-anchor="middle" x="569" y="-282.93" font-family="Times,serif" font-size="14.00">Exponential</text>
</g>
<!-- alpha_industry -->
<g id="node5" class="node">
<title>alpha_industry</title>
<ellipse fill="none" stroke="black" cx="428" cy="-187.16" rx="68.06" ry="40.66"/>
<text text-anchor="middle" x="428" y="-198.61" font-family="Times,serif" font-size="14.00">alpha_industry</text>
<text text-anchor="middle" x="428" y="-182.11" font-family="Times,serif" font-size="14.00">~</text>
<text text-anchor="middle" x="428" y="-165.61" font-family="Times,serif" font-size="14.00">Normal</text>
</g>
<!-- sigma&#45;&gt;alpha_industry -->
<g id="edge2" class="edge">
<title>sigma&#45;&gt;alpha_industry</title>
<path fill="none" stroke="black" d="M531.95,-273.18C514.99,-259.3 494.65,-242.67 476.48,-227.81"/>
<polygon fill="black" stroke="black" points="478.89,-225.26 468.93,-221.64 474.46,-230.68 478.89,-225.26"/>
</g>
<!-- mu_alpha_industry -->
<g id="node4" class="node">
<title>mu_alpha_industry</title>
<path fill="lightgrey" stroke="black" d="M476.5,-333.23C476.5,-333.23 379.5,-333.23 379.5,-333.23 373.5,-333.23 367.5,-327.23 367.5,-321.23 367.5,-321.23 367.5,-287.73 367.5,-287.73 367.5,-281.73 373.5,-275.73 379.5,-275.73 379.5,-275.73 476.5,-275.73 476.5,-275.73 482.5,-275.73 488.5,-281.73 488.5,-287.73 488.5,-287.73 488.5,-321.23 488.5,-321.23 488.5,-327.23 482.5,-333.23 476.5,-333.23"/>
<text text-anchor="middle" x="428" y="-315.93" font-family="Times,serif" font-size="14.00">mu_alpha_industry</text>
<text text-anchor="middle" x="428" y="-299.43" font-family="Times,serif" font-size="14.00">~</text>
<text text-anchor="middle" x="428" y="-282.93" font-family="Times,serif" font-size="14.00">Data</text>
</g>
<!-- mu_alpha_industry&#45;&gt;alpha_industry -->
<g id="edge1" class="edge">
<title>mu_alpha_industry&#45;&gt;alpha_industry</title>
<path fill="none" stroke="black" d="M428,-275.27C428,-264.44 428,-251.73 428,-239.41"/>
<polygon fill="black" stroke="black" points="431.5,-239.78 428,-229.78 424.5,-239.78 431.5,-239.78"/>
</g>
<!-- alpha_industry&#45;&gt;p_unemployment -->
<g id="edge4" class="edge">
<title>alpha_industry&#45;&gt;p_unemployment</title>
<path fill="none" stroke="black" d="M394.71,-151.34C381.09,-138.43 364.65,-124.42 348,-114 335.36,-106.09 321.05,-99.1 307.07,-93.17"/>
<polygon fill="black" stroke="black" points="308.46,-89.96 297.88,-89.41 305.81,-96.44 308.46,-89.96"/>
</g>
<!-- p_unemployment&#45;&gt;unemployment_status -->
<g id="edge5" class="edge">
<title>p_unemployment&#45;&gt;unemployment_status</title>
<path fill="none" stroke="black" d="M240,-98.15C240,-109.19 240,-122.24 240,-134.87"/>
<polygon fill="black" stroke="black" points="236.5,-134.76 240,-144.76 243.5,-134.76 236.5,-134.76"/>
</g>
</g>
</svg>
