<?xml version="1.0" encoding="UTF-8" standalone="no"?>
<!DOCTYPE svg PUBLIC "-//W3C//DTD SVG 1.1//EN"
 "http://www.w3.org/Graphics/SVG/1.1/DTD/svg11.dtd">
<!-- Generated by graphviz version 12.2.1 (20241206.2353)
 -->
<!-- Pages: 1 -->
<svg width="1155pt" height="510pt"
 viewBox="0.00 0.00 1155.00 510.27" xmlns="http://www.w3.org/2000/svg" xmlns:xlink="http://www.w3.org/1999/xlink">
<g id="graph0" class="graph" transform="scale(1 1) rotate(0) translate(4 506.27)">
<polygon fill="white" stroke="none" points="-4,4 -4,-506.27 1151,-506.27 1151,4 -4,4"/>
<g id="clust1" class="cluster">
<title>cluster1</title>
<path fill="none" stroke="black" d="M20,-149.73C20,-149.73 427,-149.73 427,-149.73 433,-149.73 439,-155.73 439,-161.73 439,-161.73 439,-482.27 439,-482.27 439,-488.27 433,-494.27 427,-494.27 427,-494.27 20,-494.27 20,-494.27 14,-494.27 8,-488.27 8,-482.27 8,-482.27 8,-161.73 8,-161.73 8,-155.73 14,-149.73 20,-149.73"/>
<text text-anchor="middle" x="427.62" y="-156.93" font-family="Times,serif" font-size="14.00">1</text>
</g>
<g id="clust2" class="cluster">
<title>cluster126</title>
<path fill="none" stroke="black" d="M459,-137.82C459,-137.82 1127,-137.82 1127,-137.82 1133,-137.82 1139,-143.82 1139,-149.82 1139,-149.82 1139,-247.63 1139,-247.63 1139,-253.63 1133,-259.63 1127,-259.63 1127,-259.63 459,-259.63 459,-259.63 453,-259.63 447,-253.63 447,-247.63 447,-247.63 447,-149.82 447,-149.82 447,-143.82 453,-137.82 459,-137.82"/>
<text text-anchor="middle" x="1120.88" y="-145.02" font-family="Times,serif" font-size="14.00">126</text>
</g>
<g id="clust3" class="cluster">
<title>cluster46441</title>
<path fill="none" stroke="black" d="M134,-8C134,-8 316,-8 316,-8 322,-8 328,-14 328,-20 328,-20 328,-117.82 328,-117.82 328,-123.82 322,-129.82 316,-129.82 316,-129.82 134,-129.82 134,-129.82 128,-129.82 122,-123.82 122,-117.82 122,-117.82 122,-20 122,-20 122,-14 128,-8 134,-8"/>
<text text-anchor="middle" x="303.12" y="-15.2" font-family="Times,serif" font-size="14.00">46441</text>
</g>
<!-- p_population -->
<g id="node1" class="node">
<title>p_population</title>
<polygon fill="none" stroke="black" points="601.12,-357.04 510.88,-357.04 510.88,-299.54 601.12,-299.54 601.12,-357.04"/>
<text text-anchor="middle" x="556" y="-339.74" font-family="Times,serif" font-size="14.00">p_population</text>
<text text-anchor="middle" x="556" y="-323.24" font-family="Times,serif" font-size="14.00">~</text>
<text text-anchor="middle" x="556" y="-306.74" font-family="Times,serif" font-size="14.00">Deterministic</text>
</g>
<!-- sigma -->
<g id="node2" class="node">
<title>sigma</title>
<ellipse fill="none" stroke="black" cx="757" cy="-328.29" rx="57.98" ry="40.66"/>
<text text-anchor="middle" x="757" y="-339.74" font-family="Times,serif" font-size="14.00">sigma</text>
<text text-anchor="middle" x="757" y="-323.24" font-family="Times,serif" font-size="14.00">~</text>
<text text-anchor="middle" x="757" y="-306.74" font-family="Times,serif" font-size="14.00">HalfNormal</text>
</g>
<!-- population_rates_obs -->
<g id="node13" class="node">
<title>population_rates_obs</title>
<ellipse fill="lightgrey" stroke="black" cx="1038" cy="-210.98" rx="92.98" ry="40.66"/>
<text text-anchor="middle" x="1038" y="-222.43" font-family="Times,serif" font-size="14.00">population_rates_obs</text>
<text text-anchor="middle" x="1038" y="-205.93" font-family="Times,serif" font-size="14.00">~</text>
<text text-anchor="middle" x="1038" y="-189.43" font-family="Times,serif" font-size="14.00">Normal</text>
</g>
<!-- sigma&#45;&gt;population_rates_obs -->
<g id="edge11" class="edge">
<title>sigma&#45;&gt;population_rates_obs</title>
<path fill="none" stroke="black" d="M808.33,-309.06C844.34,-295.99 893.45,-277.59 936,-259.63 945.76,-255.52 955.95,-251.01 965.96,-246.46"/>
<polygon fill="black" stroke="black" points="967.3,-249.7 974.93,-242.35 964.38,-243.33 967.3,-249.7"/>
</g>
<!-- black_rates_obs -->
<g id="node14" class="node">
<title>black_rates_obs</title>
<ellipse fill="lightgrey" stroke="black" cx="692" cy="-210.98" rx="72.83" ry="40.66"/>
<text text-anchor="middle" x="692" y="-222.43" font-family="Times,serif" font-size="14.00">black_rates_obs</text>
<text text-anchor="middle" x="692" y="-205.93" font-family="Times,serif" font-size="14.00">~</text>
<text text-anchor="middle" x="692" y="-189.43" font-family="Times,serif" font-size="14.00">Normal</text>
</g>
<!-- sigma&#45;&gt;black_rates_obs -->
<g id="edge13" class="edge">
<title>sigma&#45;&gt;black_rates_obs</title>
<path fill="none" stroke="black" d="M736.08,-290.17C730.68,-280.59 724.79,-270.14 719.12,-260.09"/>
<polygon fill="black" stroke="black" points="722.26,-258.53 714.3,-251.54 716.16,-261.97 722.26,-258.53"/>
</g>
<!-- asian_rates_obs -->
<g id="node15" class="node">
<title>asian_rates_obs</title>
<ellipse fill="lightgrey" stroke="black" cx="855" cy="-210.98" rx="71.77" ry="40.66"/>
<text text-anchor="middle" x="855" y="-222.43" font-family="Times,serif" font-size="14.00">asian_rates_obs</text>
<text text-anchor="middle" x="855" y="-205.93" font-family="Times,serif" font-size="14.00">~</text>
<text text-anchor="middle" x="855" y="-189.43" font-family="Times,serif" font-size="14.00">Normal</text>
</g>
<!-- sigma&#45;&gt;asian_rates_obs -->
<g id="edge16" class="edge">
<title>sigma&#45;&gt;asian_rates_obs</title>
<path fill="none" stroke="black" d="M786.14,-293.01C795.85,-281.57 806.82,-268.67 817.11,-256.57"/>
<polygon fill="black" stroke="black" points="819.65,-258.97 823.46,-249.09 814.32,-254.44 819.65,-258.97"/>
</g>
<!-- white_rates_obs -->
<g id="node16" class="node">
<title>white_rates_obs</title>
<ellipse fill="lightgrey" stroke="black" cx="528" cy="-210.98" rx="73.36" ry="40.66"/>
<text text-anchor="middle" x="528" y="-222.43" font-family="Times,serif" font-size="14.00">white_rates_obs</text>
<text text-anchor="middle" x="528" y="-205.93" font-family="Times,serif" font-size="14.00">~</text>
<text text-anchor="middle" x="528" y="-189.43" font-family="Times,serif" font-size="14.00">Normal</text>
</g>
<!-- sigma&#45;&gt;white_rates_obs -->
<g id="edge17" class="edge">
<title>sigma&#45;&gt;white_rates_obs</title>
<path fill="none" stroke="black" d="M708.11,-306.19C679.24,-293.38 642.16,-276.34 610,-259.63 602.48,-255.73 594.67,-251.47 586.99,-247.16"/>
<polygon fill="black" stroke="black" points="588.75,-244.13 578.32,-242.22 585.29,-250.21 588.75,-244.13"/>
</g>
<!-- mu_population_log_odds -->
<g id="node3" class="node">
<title>mu_population_log_odds</title>
<ellipse fill="none" stroke="black" cx="556" cy="-445.61" rx="109.42" ry="40.66"/>
<text text-anchor="middle" x="556" y="-457.06" font-family="Times,serif" font-size="14.00">mu_population_log_odds</text>
<text text-anchor="middle" x="556" y="-440.56" font-family="Times,serif" font-size="14.00">~</text>
<text text-anchor="middle" x="556" y="-424.06" font-family="Times,serif" font-size="14.00">Normal</text>
</g>
<!-- mu_population_log_odds&#45;&gt;p_population -->
<g id="edge7" class="edge">
<title>mu_population_log_odds&#45;&gt;p_population</title>
<path fill="none" stroke="black" d="M556,-404.6C556,-392.89 556,-380.11 556,-368.45"/>
<polygon fill="black" stroke="black" points="559.5,-368.77 556,-358.77 552.5,-368.77 559.5,-368.77"/>
</g>
<!-- mu_asian_log_odds -->
<g id="node5" class="node">
<title>mu_asian_log_odds</title>
<polygon fill="none" stroke="black" points="431.38,-357.04 306.62,-357.04 306.62,-299.54 431.38,-299.54 431.38,-357.04"/>
<text text-anchor="middle" x="369" y="-339.74" font-family="Times,serif" font-size="14.00">mu_asian_log_odds</text>
<text text-anchor="middle" x="369" y="-323.24" font-family="Times,serif" font-size="14.00">~</text>
<text text-anchor="middle" x="369" y="-306.74" font-family="Times,serif" font-size="14.00">Deterministic</text>
</g>
<!-- mu_population_log_odds&#45;&gt;mu_asian_log_odds -->
<g id="edge5" class="edge">
<title>mu_population_log_odds&#45;&gt;mu_asian_log_odds</title>
<path fill="none" stroke="black" d="M500.15,-410.17C476.12,-395.35 448.11,-378.08 424.17,-363.31"/>
<polygon fill="black" stroke="black" points="426.16,-360.43 415.81,-358.16 422.48,-366.39 426.16,-360.43"/>
</g>
<!-- mu_black_log_odds -->
<g id="node11" class="node">
<title>mu_black_log_odds</title>
<polygon fill="none" stroke="black" points="288.12,-357.04 161.88,-357.04 161.88,-299.54 288.12,-299.54 288.12,-357.04"/>
<text text-anchor="middle" x="225" y="-339.74" font-family="Times,serif" font-size="14.00">mu_black_log_odds</text>
<text text-anchor="middle" x="225" y="-323.24" font-family="Times,serif" font-size="14.00">~</text>
<text text-anchor="middle" x="225" y="-306.74" font-family="Times,serif" font-size="14.00">Deterministic</text>
</g>
<!-- mu_population_log_odds&#45;&gt;mu_black_log_odds -->
<g id="edge4" class="edge">
<title>mu_population_log_odds&#45;&gt;mu_black_log_odds</title>
<path fill="none" stroke="black" d="M478.81,-416.44C466.88,-412.4 454.65,-408.43 443,-404.95 379.38,-385.94 359.9,-392.99 298,-368.95 293.05,-367.03 288.02,-364.84 283.02,-362.5"/>
<polygon fill="black" stroke="black" points="284.75,-359.45 274.23,-358.19 281.67,-365.73 284.75,-359.45"/>
</g>
<!-- mu_white_log_odds -->
<g id="node12" class="node">
<title>mu_white_log_odds</title>
<polygon fill="none" stroke="black" points="143.5,-357.04 16.5,-357.04 16.5,-299.54 143.5,-299.54 143.5,-357.04"/>
<text text-anchor="middle" x="80" y="-339.74" font-family="Times,serif" font-size="14.00">mu_white_log_odds</text>
<text text-anchor="middle" x="80" y="-323.24" font-family="Times,serif" font-size="14.00">~</text>
<text text-anchor="middle" x="80" y="-306.74" font-family="Times,serif" font-size="14.00">Deterministic</text>
</g>
<!-- mu_population_log_odds&#45;&gt;mu_white_log_odds -->
<g id="edge2" class="edge">
<title>mu_population_log_odds&#45;&gt;mu_white_log_odds</title>
<path fill="none" stroke="black" d="M480.68,-415.68C468.23,-411.62 455.35,-407.85 443,-404.95 316.56,-375.28 276.66,-408.64 153,-368.95 147.25,-367.11 141.43,-364.8 135.71,-362.24"/>
<polygon fill="black" stroke="black" points="137.47,-359.2 126.94,-358.05 134.45,-365.52 137.47,-359.2"/>
</g>
<!-- mu_population_log_odds&#45;&gt;population_rates_obs -->
<g id="edge12" class="edge">
<title>mu_population_log_odds&#45;&gt;population_rates_obs</title>
<path fill="none" stroke="black" d="M652.68,-426.13C705.04,-413.97 769.91,-395.35 824,-368.95 885.85,-338.77 948.39,-290.36 989.74,-255.28"/>
<polygon fill="black" stroke="black" points="991.77,-258.15 997.09,-248.99 987.22,-252.83 991.77,-258.15"/>
</g>
<!-- p_asian -->
<g id="node4" class="node">
<title>p_asian</title>
<polygon fill="none" stroke="black" points="396.12,-239.73 305.88,-239.73 305.88,-182.23 396.12,-182.23 396.12,-239.73"/>
<text text-anchor="middle" x="351" y="-222.43" font-family="Times,serif" font-size="14.00">p_asian</text>
<text text-anchor="middle" x="351" y="-205.93" font-family="Times,serif" font-size="14.00">~</text>
<text text-anchor="middle" x="351" y="-189.43" font-family="Times,serif" font-size="14.00">Deterministic</text>
</g>
<!-- individual_status_obs -->
<g id="node17" class="node">
<title>individual_status_obs</title>
<ellipse fill="lightgrey" stroke="black" cx="225" cy="-81.16" rx="94.58" ry="40.66"/>
<text text-anchor="middle" x="225" y="-92.61" font-family="Times,serif" font-size="14.00">individual_status_obs</text>
<text text-anchor="middle" x="225" y="-76.11" font-family="Times,serif" font-size="14.00">~</text>
<text text-anchor="middle" x="225" y="-59.61" font-family="Times,serif" font-size="14.00">Bernoulli</text>
</g>
<!-- p_asian&#45;&gt;individual_status_obs -->
<g id="edge21" class="edge">
<title>p_asian&#45;&gt;individual_status_obs</title>
<path fill="none" stroke="black" d="M323.35,-181.93C307.38,-165.72 286.92,-144.97 268.8,-126.59"/>
<polygon fill="black" stroke="black" points="271.78,-124.63 262.27,-119.96 266.79,-129.54 271.78,-124.63"/>
</g>
<!-- mu_asian_log_odds&#45;&gt;p_asian -->
<g id="edge10" class="edge">
<title>mu_asian_log_odds&#45;&gt;p_asian</title>
<path fill="none" stroke="black" d="M364.6,-299.08C362.34,-284.6 359.54,-266.72 357.08,-250.94"/>
<polygon fill="black" stroke="black" points="360.59,-250.73 355.59,-241.39 353.68,-251.81 360.59,-250.73"/>
</g>
<!-- mu_asian_log_odds&#45;&gt;asian_rates_obs -->
<g id="edge15" class="edge">
<title>mu_asian_log_odds&#45;&gt;asian_rates_obs</title>
<path fill="none" stroke="black" d="M431.65,-305.98C453.67,-299.2 478.72,-292.26 502,-287.63 621.2,-263.95 658.54,-297.54 774,-259.63 782.71,-256.78 791.49,-252.88 799.9,-248.53"/>
<polygon fill="black" stroke="black" points="801.51,-251.64 808.61,-243.78 798.16,-245.5 801.51,-251.64"/>
</g>
<!-- p_black -->
<g id="node6" class="node">
<title>p_black</title>
<polygon fill="none" stroke="black" points="270.12,-239.73 179.88,-239.73 179.88,-182.23 270.12,-182.23 270.12,-239.73"/>
<text text-anchor="middle" x="225" y="-222.43" font-family="Times,serif" font-size="14.00">p_black</text>
<text text-anchor="middle" x="225" y="-205.93" font-family="Times,serif" font-size="14.00">~</text>
<text text-anchor="middle" x="225" y="-189.43" font-family="Times,serif" font-size="14.00">Deterministic</text>
</g>
<!-- p_black&#45;&gt;individual_status_obs -->
<g id="edge20" class="edge">
<title>p_black&#45;&gt;individual_status_obs</title>
<path fill="none" stroke="black" d="M225,-181.93C225,-167.72 225,-150.01 225,-133.47"/>
<polygon fill="black" stroke="black" points="228.5,-133.78 225,-123.78 221.5,-133.78 228.5,-133.78"/>
</g>
<!-- beta_white -->
<g id="node7" class="node">
<title>beta_white</title>
<ellipse fill="none" stroke="black" cx="80" cy="-445.61" rx="53.21" ry="40.66"/>
<text text-anchor="middle" x="80" y="-457.06" font-family="Times,serif" font-size="14.00">beta_white</text>
<text text-anchor="middle" x="80" y="-440.56" font-family="Times,serif" font-size="14.00">~</text>
<text text-anchor="middle" x="80" y="-424.06" font-family="Times,serif" font-size="14.00">Normal</text>
</g>
<!-- beta_white&#45;&gt;mu_white_log_odds -->
<g id="edge1" class="edge">
<title>beta_white&#45;&gt;mu_white_log_odds</title>
<path fill="none" stroke="black" d="M80,-404.6C80,-392.89 80,-380.11 80,-368.45"/>
<polygon fill="black" stroke="black" points="83.5,-368.77 80,-358.77 76.5,-368.77 83.5,-368.77"/>
</g>
<!-- beta_black -->
<g id="node8" class="node">
<title>beta_black</title>
<ellipse fill="none" stroke="black" cx="225" cy="-445.61" rx="52.68" ry="40.66"/>
<text text-anchor="middle" x="225" y="-457.06" font-family="Times,serif" font-size="14.00">beta_black</text>
<text text-anchor="middle" x="225" y="-440.56" font-family="Times,serif" font-size="14.00">~</text>
<text text-anchor="middle" x="225" y="-424.06" font-family="Times,serif" font-size="14.00">Normal</text>
</g>
<!-- beta_black&#45;&gt;mu_black_log_odds -->
<g id="edge3" class="edge">
<title>beta_black&#45;&gt;mu_black_log_odds</title>
<path fill="none" stroke="black" d="M225,-404.6C225,-392.89 225,-380.11 225,-368.45"/>
<polygon fill="black" stroke="black" points="228.5,-368.77 225,-358.77 221.5,-368.77 228.5,-368.77"/>
</g>
<!-- beta_asian -->
<g id="node9" class="node">
<title>beta_asian</title>
<ellipse fill="none" stroke="black" cx="369" cy="-445.61" rx="51.62" ry="40.66"/>
<text text-anchor="middle" x="369" y="-457.06" font-family="Times,serif" font-size="14.00">beta_asian</text>
<text text-anchor="middle" x="369" y="-440.56" font-family="Times,serif" font-size="14.00">~</text>
<text text-anchor="middle" x="369" y="-424.06" font-family="Times,serif" font-size="14.00">Normal</text>
</g>
<!-- beta_asian&#45;&gt;mu_asian_log_odds -->
<g id="edge6" class="edge">
<title>beta_asian&#45;&gt;mu_asian_log_odds</title>
<path fill="none" stroke="black" d="M369,-404.6C369,-392.89 369,-380.11 369,-368.45"/>
<polygon fill="black" stroke="black" points="372.5,-368.77 369,-358.77 365.5,-368.77 372.5,-368.77"/>
</g>
<!-- p_white -->
<g id="node10" class="node">
<title>p_white</title>
<polygon fill="none" stroke="black" points="143.12,-239.73 52.88,-239.73 52.88,-182.23 143.12,-182.23 143.12,-239.73"/>
<text text-anchor="middle" x="98" y="-222.43" font-family="Times,serif" font-size="14.00">p_white</text>
<text text-anchor="middle" x="98" y="-205.93" font-family="Times,serif" font-size="14.00">~</text>
<text text-anchor="middle" x="98" y="-189.43" font-family="Times,serif" font-size="14.00">Deterministic</text>
</g>
<!-- p_white&#45;&gt;individual_status_obs -->
<g id="edge19" class="edge">
<title>p_white&#45;&gt;individual_status_obs</title>
<path fill="none" stroke="black" d="M125.87,-181.93C141.97,-165.72 162.59,-144.97 180.85,-126.59"/>
<polygon fill="black" stroke="black" points="182.88,-129.52 187.44,-119.96 177.91,-124.59 182.88,-129.52"/>
</g>
<!-- mu_black_log_odds&#45;&gt;p_black -->
<g id="edge9" class="edge">
<title>mu_black_log_odds&#45;&gt;p_black</title>
<path fill="none" stroke="black" d="M225,-299.08C225,-284.74 225,-267.07 225,-251.4"/>
<polygon fill="black" stroke="black" points="228.5,-251.41 225,-241.41 221.5,-251.41 228.5,-251.41"/>
</g>
<!-- mu_black_log_odds&#45;&gt;black_rates_obs -->
<g id="edge14" class="edge">
<title>mu_black_log_odds&#45;&gt;black_rates_obs</title>
<path fill="none" stroke="black" d="M270.1,-299.13C279.06,-294.6 288.61,-290.47 298,-287.63 431.27,-247.35 477.33,-301.84 610,-259.63 618.91,-256.8 627.9,-252.88 636.5,-248.49"/>
<polygon fill="black" stroke="black" points="637.91,-251.71 645.05,-243.88 634.59,-245.55 637.91,-251.71"/>
</g>
<!-- mu_white_log_odds&#45;&gt;p_white -->
<g id="edge8" class="edge">
<title>mu_white_log_odds&#45;&gt;p_white</title>
<path fill="none" stroke="black" d="M84.4,-299.08C86.66,-284.6 89.46,-266.72 91.92,-250.94"/>
<polygon fill="black" stroke="black" points="95.32,-251.81 93.41,-241.39 88.41,-250.73 95.32,-251.81"/>
</g>
<!-- mu_white_log_odds&#45;&gt;white_rates_obs -->
<g id="edge18" class="edge">
<title>mu_white_log_odds&#45;&gt;white_rates_obs</title>
<path fill="none" stroke="black" d="M125.11,-299.19C134.07,-294.65 143.62,-290.5 153,-287.63 276.82,-249.74 319.43,-298.35 443,-259.63 452.5,-256.66 462.13,-252.53 471.32,-247.94"/>
<polygon fill="black" stroke="black" points="472.92,-251.05 480.14,-243.3 469.66,-244.86 472.92,-251.05"/>
</g>
</g>
</svg>
