<?xml version="1.0" encoding="UTF-8" standalone="no"?>
<!DOCTYPE svg PUBLIC "-//W3C//DTD SVG 1.1//EN"
 "http://www.w3.org/Graphics/SVG/1.1/DTD/svg11.dtd">
<!-- Generated by graphviz version 12.2.1 (20241206.2353)
 -->
<!-- Pages: 1 -->
<svg width="634pt" height="357pt"
 viewBox="0.00 0.00 634.45 357.23" xmlns="http://www.w3.org/2000/svg" xmlns:xlink="http://www.w3.org/1999/xlink">
<g id="graph0" class="graph" transform="scale(1 1) rotate(0) translate(4 353.23)">
<polygon fill="white" stroke="none" points="-4,4 -4,-353.23 630.45,-353.23 630.45,4 -4,4"/>
<g id="clust1" class="cluster">
<title>clusterobs_id (533154)</title>
<path fill="none" stroke="black" d="M20,-114C20,-114 332,-114 332,-114 338,-114 344,-120 344,-126 344,-126 344,-223.82 344,-223.82 344,-229.82 338,-235.82 332,-235.82 332,-235.82 20,-235.82 20,-235.82 14,-235.82 8,-229.82 8,-223.82 8,-223.82 8,-126 8,-126 8,-120 14,-114 20,-114"/>
<text text-anchor="middle" x="291.38" y="-121.2" font-family="Times,serif" font-size="14.00">obs_id (533154)</text>
</g>
<g id="clust2" class="cluster">
<title>clusterindustry (9)</title>
<path fill="none" stroke="black" d="M364,-114C364,-114 492,-114 492,-114 498,-114 504,-120 504,-126 504,-126 504,-329.23 504,-329.23 504,-335.23 498,-341.23 492,-341.23 492,-341.23 364,-341.23 364,-341.23 358,-341.23 352,-335.23 352,-329.23 352,-329.23 352,-126 352,-126 352,-120 358,-114 364,-114"/>
<text text-anchor="middle" x="464.12" y="-121.2" font-family="Times,serif" font-size="14.00">industry (9)</text>
</g>
<g id="clust3" class="cluster">
<title>cluster533154</title>
<path fill="none" stroke="black" d="M229,-8C229,-8 333,-8 333,-8 339,-8 345,-14 345,-20 345,-20 345,-94 345,-94 345,-100 339,-106 333,-106 333,-106 229,-106 229,-106 223,-106 217,-100 217,-94 217,-94 217,-20 217,-20 217,-14 223,-8 229,-8"/>
<text text-anchor="middle" x="316.75" y="-15.2" font-family="Times,serif" font-size="14.00">533154</text>
</g>
<!-- unemployment_status -->
<g id="node1" class="node">
<title>unemployment_status</title>
<ellipse fill="lightgrey" stroke="black" cx="112" cy="-187.16" rx="96.17" ry="40.66"/>
<text text-anchor="middle" x="112" y="-198.61" font-family="Times,serif" font-size="14.00">unemployment_status</text>
<text text-anchor="middle" x="112" y="-182.11" font-family="Times,serif" font-size="14.00">~</text>
<text text-anchor="middle" x="112" y="-165.61" font-family="Times,serif" font-size="14.00">Bernoulli</text>
</g>
<!-- industry_idx_obs -->
<g id="node2" class="node">
<title>industry_idx_obs</title>
<path fill="lightgrey" stroke="black" d="M323.88,-215.91C323.88,-215.91 238.12,-215.91 238.12,-215.91 232.12,-215.91 226.12,-209.91 226.12,-203.91 226.12,-203.91 226.12,-170.41 226.12,-170.41 226.12,-164.41 232.12,-158.41 238.12,-158.41 238.12,-158.41 323.88,-158.41 323.88,-158.41 329.88,-158.41 335.88,-164.41 335.88,-170.41 335.88,-170.41 335.88,-203.91 335.88,-203.91 335.88,-209.91 329.88,-215.91 323.88,-215.91"/>
<text text-anchor="middle" x="281" y="-198.61" font-family="Times,serif" font-size="14.00">industry_idx_obs</text>
<text text-anchor="middle" x="281" y="-182.11" font-family="Times,serif" font-size="14.00">~</text>
<text text-anchor="middle" x="281" y="-165.61" font-family="Times,serif" font-size="14.00">Data</text>
</g>
<!-- p_unemployment -->
<g id="node6" class="node">
<title>p_unemployment</title>
<polygon fill="none" stroke="black" points="337,-98 225,-98 225,-40.5 337,-40.5 337,-98"/>
<text text-anchor="middle" x="281" y="-80.7" font-family="Times,serif" font-size="14.00">p_unemployment</text>
<text text-anchor="middle" x="281" y="-64.2" font-family="Times,serif" font-size="14.00">~</text>
<text text-anchor="middle" x="281" y="-47.7" font-family="Times,serif" font-size="14.00">Deterministic</text>
</g>
<!-- industry_idx_obs&#45;&gt;p_unemployment -->
<g id="edge4" class="edge">
<title>industry_idx_obs&#45;&gt;p_unemployment</title>
<path fill="none" stroke="black" d="M281,-158.1C281,-143.54 281,-125.52 281,-109.6"/>
<polygon fill="black" stroke="black" points="284.5,-109.97 281,-99.97 277.5,-109.97 284.5,-109.97"/>
</g>
<!-- sigma -->
<g id="node3" class="node">
<title>sigma</title>
<ellipse fill="none" stroke="black" cx="569" cy="-304.48" rx="57.45" ry="40.66"/>
<text text-anchor="middle" x="569" y="-315.93" font-family="Times,serif" font-size="14.00">sigma</text>
<text text-anchor="middle" x="569" y="-299.43" font-family="Times,serif" font-size="14.00">~</text>
<text text-anchor="middle" x="569" y="-282.93" font-family="Times,serif" font-size="14.00">Exponential</text>
</g>
<!-- alpha_industry -->
<g id="node4" class="node">
<title>alpha_industry</title>
<ellipse fill="none" stroke="black" cx="428" cy="-187.16" rx="68.06" ry="40.66"/>
<text text-anchor="middle" x="428" y="-198.61" font-family="Times,serif" font-size="14.00">alpha_industry</text>
<text text-anchor="middle" x="428" y="-182.11" font-family="Times,serif" font-size="14.00">~</text>
<text text-anchor="middle" x="428" y="-165.61" font-family="Times,serif" font-size="14.00">Normal</text>
</g>
<!-- sigma&#45;&gt;alpha_industry -->
<g id="edge1" class="edge">
<title>sigma&#45;&gt;alpha_industry</title>
<path fill="none" stroke="black" d="M531.95,-273.18C514.99,-259.3 494.65,-242.67 476.48,-227.81"/>
<polygon fill="black" stroke="black" points="478.89,-225.26 468.93,-221.64 474.46,-230.68 478.89,-225.26"/>
</g>
<!-- alpha_industry&#45;&gt;p_unemployment -->
<g id="edge3" class="edge">
<title>alpha_industry&#45;&gt;p_unemployment</title>
<path fill="none" stroke="black" d="M392.79,-152.24C379.2,-139.73 363.26,-125.75 348,-114 344.05,-110.96 339.9,-107.92 335.67,-104.93"/>
<polygon fill="black" stroke="black" points="337.82,-102.15 327.6,-99.35 333.84,-107.91 337.82,-102.15"/>
</g>
<!-- mu_alpha_industry -->
<g id="node5" class="node">
<title>mu_alpha_industry</title>
<path fill="lightgrey" stroke="black" d="M476.5,-333.23C476.5,-333.23 379.5,-333.23 379.5,-333.23 373.5,-333.23 367.5,-327.23 367.5,-321.23 367.5,-321.23 367.5,-287.73 367.5,-287.73 367.5,-281.73 373.5,-275.73 379.5,-275.73 379.5,-275.73 476.5,-275.73 476.5,-275.73 482.5,-275.73 488.5,-281.73 488.5,-287.73 488.5,-287.73 488.5,-321.23 488.5,-321.23 488.5,-327.23 482.5,-333.23 476.5,-333.23"/>
<text text-anchor="middle" x="428" y="-315.93" font-family="Times,serif" font-size="14.00">mu_alpha_industry</text>
<text text-anchor="middle" x="428" y="-299.43" font-family="Times,serif" font-size="14.00">~</text>
<text text-anchor="middle" x="428" y="-282.93" font-family="Times,serif" font-size="14.00">Data</text>
</g>
<!-- mu_alpha_industry&#45;&gt;alpha_industry -->
<g id="edge2" class="edge">
<title>mu_alpha_industry&#45;&gt;alpha_industry</title>
<path fill="none" stroke="black" d="M428,-275.27C428,-264.44 428,-251.73 428,-239.41"/>
<polygon fill="black" stroke="black" points="431.5,-239.78 428,-229.78 424.5,-239.78 431.5,-239.78"/>
</g>
<!-- p_unemployment&#45;&gt;unemployment_status -->
<g id="edge5" class="edge">
<title>p_unemployment&#45;&gt;unemployment_status</title>
<path fill="none" stroke="black" d="M239.68,-98.48C232.13,-103.64 224.33,-108.98 217,-114 202.04,-124.25 185.9,-135.34 170.86,-145.67"/>
<polygon fill="black" stroke="black" points="169.16,-142.59 162.9,-151.14 173.13,-148.36 169.16,-142.59"/>
</g>
</g>
</svg>
