<?xml version="1.0" encoding="UTF-8" standalone="no"?>
<!DOCTYPE svg PUBLIC "-//W3C//DTD SVG 1.1//EN"
 "http://www.w3.org/Graphics/SVG/1.1/DTD/svg11.dtd">
<!-- Generated by graphviz version 12.2.1 (20241206.2353)
 -->
<!-- Pages: 1 -->
<svg width="1155pt" height="510pt"
 viewBox="0.00 0.00 1155.00 510.27" xmlns="http://www.w3.org/2000/svg" xmlns:xlink="http://www.w3.org/1999/xlink">
<g id="graph0" class="graph" transform="scale(1 1) rotate(0) translate(4 506.27)">
<polygon fill="white" stroke="none" points="-4,4 -4,-506.27 1151,-506.27 1151,4 -4,4"/>
<g id="clust1" class="cluster">
<title>cluster1</title>
<path fill="none" stroke="black" d="M20,-149.73C20,-149.73 427,-149.73 427,-149.73 433,-149.73 439,-155.73 439,-161.73 439,-161.73 439,-482.27 439,-482.27 439,-488.27 433,-494.27 427,-494.27 427,-494.27 20,-494.27 20,-494.27 14,-494.27 8,-488.27 8,-482.27 8,-482.27 8,-161.73 8,-161.73 8,-155.73 14,-149.73 20,-149.73"/>
<text text-anchor="middle" x="427.62" y="-156.93" font-family="Times,serif" font-size="14.00">1</text>
</g>
<g id="clust2" class="cluster">
<title>cluster126</title>
<path fill="none" stroke="black" d="M459,-137.82C459,-137.82 1127,-137.82 1127,-137.82 1133,-137.82 1139,-143.82 1139,-149.82 1139,-149.82 1139,-247.63 1139,-247.63 1139,-253.63 1133,-259.63 1127,-259.63 1127,-259.63 459,-259.63 459,-259.63 453,-259.63 447,-253.63 447,-247.63 447,-247.63 447,-149.82 447,-149.82 447,-143.82 453,-137.82 459,-137.82"/>
<text text-anchor="middle" x="1120.88" y="-145.02" font-family="Times,serif" font-size="14.00">126</text>
</g>
<g id="clust3" class="cluster">
<title>cluster46441</title>
<path fill="none" stroke="black" d="M131,-8C131,-8 313,-8 313,-8 319,-8 325,-14 325,-20 325,-20 325,-117.82 325,-117.82 325,-123.82 319,-129.82 313,-129.82 313,-129.82 131,-129.82 131,-129.82 125,-129.82 119,-123.82 119,-117.82 119,-117.82 119,-20 119,-20 119,-14 125,-8 131,-8"/>
<text text-anchor="middle" x="300.12" y="-15.2" font-family="Times,serif" font-size="14.00">46441</text>
</g>
<!-- mu_population_log_odds -->
<g id="node1" class="node">
<title>mu_population_log_odds</title>
<ellipse fill="none" stroke="black" cx="556" cy="-445.61" rx="109.42" ry="40.66"/>
<text text-anchor="middle" x="556" y="-457.06" font-family="Times,serif" font-size="14.00">mu_population_log_odds</text>
<text text-anchor="middle" x="556" y="-440.56" font-family="Times,serif" font-size="14.00">~</text>
<text text-anchor="middle" x="556" y="-424.06" font-family="Times,serif" font-size="14.00">Normal</text>
</g>
<!-- p_population -->
<g id="node2" class="node">
<title>p_population</title>
<polygon fill="none" stroke="black" points="601.12,-357.04 510.88,-357.04 510.88,-299.54 601.12,-299.54 601.12,-357.04"/>
<text text-anchor="middle" x="556" y="-339.74" font-family="Times,serif" font-size="14.00">p_population</text>
<text text-anchor="middle" x="556" y="-323.24" font-family="Times,serif" font-size="14.00">~</text>
<text text-anchor="middle" x="556" y="-306.74" font-family="Times,serif" font-size="14.00">Deterministic</text>
</g>
<!-- mu_population_log_odds&#45;&gt;p_population -->
<g id="edge7" class="edge">
<title>mu_population_log_odds&#45;&gt;p_population</title>
<path fill="none" stroke="black" d="M556,-404.6C556,-392.89 556,-380.11 556,-368.45"/>
<polygon fill="black" stroke="black" points="559.5,-368.77 556,-358.77 552.5,-368.77 559.5,-368.77"/>
</g>
<!-- mu_asian_log_odds -->
<g id="node5" class="node">
<title>mu_asian_log_odds</title>
<polygon fill="none" stroke="black" points="140.38,-357.04 15.63,-357.04 15.63,-299.54 140.38,-299.54 140.38,-357.04"/>
<text text-anchor="middle" x="78" y="-339.74" font-family="Times,serif" font-size="14.00">mu_asian_log_odds</text>
<text text-anchor="middle" x="78" y="-323.24" font-family="Times,serif" font-size="14.00">~</text>
<text text-anchor="middle" x="78" y="-306.74" font-family="Times,serif" font-size="14.00">Deterministic</text>
</g>
<!-- mu_population_log_odds&#45;&gt;mu_asian_log_odds -->
<g id="edge5" class="edge">
<title>mu_population_log_odds&#45;&gt;mu_asian_log_odds</title>
<path fill="none" stroke="black" d="M480.69,-415.66C468.23,-411.61 455.35,-407.84 443,-404.95 315.25,-375.05 274.83,-409.33 150,-368.95 144.31,-367.11 138.56,-364.81 132.92,-362.26"/>
<polygon fill="black" stroke="black" points="134.8,-359.28 124.27,-358.07 131.75,-365.58 134.8,-359.28"/>
</g>
<!-- mu_black_log_odds -->
<g id="node10" class="node">
<title>mu_black_log_odds</title>
<polygon fill="none" stroke="black" points="285.12,-357.04 158.88,-357.04 158.88,-299.54 285.12,-299.54 285.12,-357.04"/>
<text text-anchor="middle" x="222" y="-339.74" font-family="Times,serif" font-size="14.00">mu_black_log_odds</text>
<text text-anchor="middle" x="222" y="-323.24" font-family="Times,serif" font-size="14.00">~</text>
<text text-anchor="middle" x="222" y="-306.74" font-family="Times,serif" font-size="14.00">Deterministic</text>
</g>
<!-- mu_population_log_odds&#45;&gt;mu_black_log_odds -->
<g id="edge3" class="edge">
<title>mu_population_log_odds&#45;&gt;mu_black_log_odds</title>
<path fill="none" stroke="black" d="M478.83,-416.39C466.89,-412.35 454.66,-408.41 443,-404.95 378.09,-385.72 358.16,-393.31 295,-368.95 289.97,-367.01 284.85,-364.79 279.77,-362.41"/>
<polygon fill="black" stroke="black" points="281.34,-359.28 270.82,-358.02 278.25,-365.57 281.34,-359.28"/>
</g>
<!-- mu_white_log_odds -->
<g id="node11" class="node">
<title>mu_white_log_odds</title>
<polygon fill="none" stroke="black" points="430.5,-357.04 303.5,-357.04 303.5,-299.54 430.5,-299.54 430.5,-357.04"/>
<text text-anchor="middle" x="367" y="-339.74" font-family="Times,serif" font-size="14.00">mu_white_log_odds</text>
<text text-anchor="middle" x="367" y="-323.24" font-family="Times,serif" font-size="14.00">~</text>
<text text-anchor="middle" x="367" y="-306.74" font-family="Times,serif" font-size="14.00">Deterministic</text>
</g>
<!-- mu_population_log_odds&#45;&gt;mu_white_log_odds -->
<g id="edge1" class="edge">
<title>mu_population_log_odds&#45;&gt;mu_white_log_odds</title>
<path fill="none" stroke="black" d="M499.81,-410.32C475.51,-395.5 447.16,-378.2 422.9,-363.4"/>
<polygon fill="black" stroke="black" points="424.78,-360.45 414.42,-358.23 421.13,-366.42 424.78,-360.45"/>
</g>
<!-- population_rates_obs -->
<g id="node14" class="node">
<title>population_rates_obs</title>
<ellipse fill="lightgrey" stroke="black" cx="1038" cy="-210.98" rx="92.98" ry="40.66"/>
<text text-anchor="middle" x="1038" y="-222.43" font-family="Times,serif" font-size="14.00">population_rates_obs</text>
<text text-anchor="middle" x="1038" y="-205.93" font-family="Times,serif" font-size="14.00">~</text>
<text text-anchor="middle" x="1038" y="-189.43" font-family="Times,serif" font-size="14.00">Normal</text>
</g>
<!-- mu_population_log_odds&#45;&gt;population_rates_obs -->
<g id="edge11" class="edge">
<title>mu_population_log_odds&#45;&gt;population_rates_obs</title>
<path fill="none" stroke="black" d="M652.22,-425.86C704.12,-413.64 768.36,-395.05 822,-368.95 884.27,-338.66 947.41,-290.27 989.21,-255.22"/>
<polygon fill="black" stroke="black" points="991.27,-258.06 996.64,-248.93 986.74,-252.72 991.27,-258.06"/>
</g>
<!-- sigma -->
<g id="node3" class="node">
<title>sigma</title>
<ellipse fill="none" stroke="black" cx="755" cy="-328.29" rx="57.98" ry="40.66"/>
<text text-anchor="middle" x="755" y="-339.74" font-family="Times,serif" font-size="14.00">sigma</text>
<text text-anchor="middle" x="755" y="-323.24" font-family="Times,serif" font-size="14.00">~</text>
<text text-anchor="middle" x="755" y="-306.74" font-family="Times,serif" font-size="14.00">HalfNormal</text>
</g>
<!-- white_rates_obs -->
<g id="node13" class="node">
<title>white_rates_obs</title>
<ellipse fill="lightgrey" stroke="black" cx="854" cy="-210.98" rx="73.36" ry="40.66"/>
<text text-anchor="middle" x="854" y="-222.43" font-family="Times,serif" font-size="14.00">white_rates_obs</text>
<text text-anchor="middle" x="854" y="-205.93" font-family="Times,serif" font-size="14.00">~</text>
<text text-anchor="middle" x="854" y="-189.43" font-family="Times,serif" font-size="14.00">Normal</text>
</g>
<!-- sigma&#45;&gt;white_rates_obs -->
<g id="edge18" class="edge">
<title>sigma&#45;&gt;white_rates_obs</title>
<path fill="none" stroke="black" d="M784.44,-293.01C794.25,-281.57 805.33,-268.67 815.72,-256.57"/>
<polygon fill="black" stroke="black" points="818.29,-258.95 822.14,-249.08 812.98,-254.39 818.29,-258.95"/>
</g>
<!-- sigma&#45;&gt;population_rates_obs -->
<g id="edge12" class="edge">
<title>sigma&#45;&gt;population_rates_obs</title>
<path fill="none" stroke="black" d="M806.53,-309.26C842.98,-296.21 892.85,-277.75 936,-259.63 945.76,-255.54 955.96,-251.04 965.98,-246.49"/>
<polygon fill="black" stroke="black" points="967.31,-249.73 974.95,-242.38 964.4,-243.37 967.31,-249.73"/>
</g>
<!-- black_rates_obs -->
<g id="node15" class="node">
<title>black_rates_obs</title>
<ellipse fill="lightgrey" stroke="black" cx="690" cy="-210.98" rx="72.83" ry="40.66"/>
<text text-anchor="middle" x="690" y="-222.43" font-family="Times,serif" font-size="14.00">black_rates_obs</text>
<text text-anchor="middle" x="690" y="-205.93" font-family="Times,serif" font-size="14.00">~</text>
<text text-anchor="middle" x="690" y="-189.43" font-family="Times,serif" font-size="14.00">Normal</text>
</g>
<!-- sigma&#45;&gt;black_rates_obs -->
<g id="edge13" class="edge">
<title>sigma&#45;&gt;black_rates_obs</title>
<path fill="none" stroke="black" d="M734.08,-290.17C728.68,-280.59 722.79,-270.14 717.12,-260.09"/>
<polygon fill="black" stroke="black" points="720.26,-258.53 712.3,-251.54 714.16,-261.97 720.26,-258.53"/>
</g>
<!-- asian_rates_obs -->
<g id="node16" class="node">
<title>asian_rates_obs</title>
<ellipse fill="lightgrey" stroke="black" cx="527" cy="-210.98" rx="71.77" ry="40.66"/>
<text text-anchor="middle" x="527" y="-222.43" font-family="Times,serif" font-size="14.00">asian_rates_obs</text>
<text text-anchor="middle" x="527" y="-205.93" font-family="Times,serif" font-size="14.00">~</text>
<text text-anchor="middle" x="527" y="-189.43" font-family="Times,serif" font-size="14.00">Normal</text>
</g>
<!-- sigma&#45;&gt;asian_rates_obs -->
<g id="edge16" class="edge">
<title>sigma&#45;&gt;asian_rates_obs</title>
<path fill="none" stroke="black" d="M706.08,-306.25C677.19,-293.47 640.12,-276.42 608,-259.63 600.56,-255.75 592.84,-251.5 585.25,-247.19"/>
<polygon fill="black" stroke="black" points="587.11,-244.22 576.7,-242.26 583.62,-250.28 587.11,-244.22"/>
</g>
<!-- beta_asian -->
<g id="node4" class="node">
<title>beta_asian</title>
<ellipse fill="none" stroke="black" cx="78" cy="-445.61" rx="51.62" ry="40.66"/>
<text text-anchor="middle" x="78" y="-457.06" font-family="Times,serif" font-size="14.00">beta_asian</text>
<text text-anchor="middle" x="78" y="-440.56" font-family="Times,serif" font-size="14.00">~</text>
<text text-anchor="middle" x="78" y="-424.06" font-family="Times,serif" font-size="14.00">Normal</text>
</g>
<!-- beta_asian&#45;&gt;mu_asian_log_odds -->
<g id="edge6" class="edge">
<title>beta_asian&#45;&gt;mu_asian_log_odds</title>
<path fill="none" stroke="black" d="M78,-404.6C78,-392.89 78,-380.11 78,-368.45"/>
<polygon fill="black" stroke="black" points="81.5,-368.77 78,-358.77 74.5,-368.77 81.5,-368.77"/>
</g>
<!-- p_asian -->
<g id="node9" class="node">
<title>p_asian</title>
<polygon fill="none" stroke="black" points="141.12,-239.73 50.88,-239.73 50.88,-182.23 141.12,-182.23 141.12,-239.73"/>
<text text-anchor="middle" x="96" y="-222.43" font-family="Times,serif" font-size="14.00">p_asian</text>
<text text-anchor="middle" x="96" y="-205.93" font-family="Times,serif" font-size="14.00">~</text>
<text text-anchor="middle" x="96" y="-189.43" font-family="Times,serif" font-size="14.00">Deterministic</text>
</g>
<!-- mu_asian_log_odds&#45;&gt;p_asian -->
<g id="edge10" class="edge">
<title>mu_asian_log_odds&#45;&gt;p_asian</title>
<path fill="none" stroke="black" d="M82.4,-299.08C84.66,-284.6 87.46,-266.72 89.92,-250.94"/>
<polygon fill="black" stroke="black" points="93.32,-251.81 91.41,-241.39 86.41,-250.73 93.32,-251.81"/>
</g>
<!-- mu_asian_log_odds&#45;&gt;asian_rates_obs -->
<g id="edge15" class="edge">
<title>mu_asian_log_odds&#45;&gt;asian_rates_obs</title>
<path fill="none" stroke="black" d="M122.46,-299.17C131.3,-294.64 140.73,-290.5 150,-287.63 275,-249.05 318.25,-299 443,-259.63 452.41,-256.67 461.93,-252.54 471.02,-247.95"/>
<polygon fill="black" stroke="black" points="472.54,-251.11 479.73,-243.32 469.26,-244.93 472.54,-251.11"/>
</g>
<!-- p_black -->
<g id="node6" class="node">
<title>p_black</title>
<polygon fill="none" stroke="black" points="267.12,-239.73 176.88,-239.73 176.88,-182.23 267.12,-182.23 267.12,-239.73"/>
<text text-anchor="middle" x="222" y="-222.43" font-family="Times,serif" font-size="14.00">p_black</text>
<text text-anchor="middle" x="222" y="-205.93" font-family="Times,serif" font-size="14.00">~</text>
<text text-anchor="middle" x="222" y="-189.43" font-family="Times,serif" font-size="14.00">Deterministic</text>
</g>
<!-- individual_status_obs -->
<g id="node17" class="node">
<title>individual_status_obs</title>
<ellipse fill="lightgrey" stroke="black" cx="222" cy="-81.16" rx="94.58" ry="40.66"/>
<text text-anchor="middle" x="222" y="-92.61" font-family="Times,serif" font-size="14.00">individual_status_obs</text>
<text text-anchor="middle" x="222" y="-76.11" font-family="Times,serif" font-size="14.00">~</text>
<text text-anchor="middle" x="222" y="-59.61" font-family="Times,serif" font-size="14.00">Bernoulli</text>
</g>
<!-- p_black&#45;&gt;individual_status_obs -->
<g id="edge19" class="edge">
<title>p_black&#45;&gt;individual_status_obs</title>
<path fill="none" stroke="black" d="M222,-181.93C222,-167.72 222,-150.01 222,-133.47"/>
<polygon fill="black" stroke="black" points="225.5,-133.78 222,-123.78 218.5,-133.78 225.5,-133.78"/>
</g>
<!-- beta_black -->
<g id="node7" class="node">
<title>beta_black</title>
<ellipse fill="none" stroke="black" cx="222" cy="-445.61" rx="52.68" ry="40.66"/>
<text text-anchor="middle" x="222" y="-457.06" font-family="Times,serif" font-size="14.00">beta_black</text>
<text text-anchor="middle" x="222" y="-440.56" font-family="Times,serif" font-size="14.00">~</text>
<text text-anchor="middle" x="222" y="-424.06" font-family="Times,serif" font-size="14.00">Normal</text>
</g>
<!-- beta_black&#45;&gt;mu_black_log_odds -->
<g id="edge4" class="edge">
<title>beta_black&#45;&gt;mu_black_log_odds</title>
<path fill="none" stroke="black" d="M222,-404.6C222,-392.89 222,-380.11 222,-368.45"/>
<polygon fill="black" stroke="black" points="225.5,-368.77 222,-358.77 218.5,-368.77 225.5,-368.77"/>
</g>
<!-- p_white -->
<g id="node8" class="node">
<title>p_white</title>
<polygon fill="none" stroke="black" points="393.12,-239.73 302.88,-239.73 302.88,-182.23 393.12,-182.23 393.12,-239.73"/>
<text text-anchor="middle" x="348" y="-222.43" font-family="Times,serif" font-size="14.00">p_white</text>
<text text-anchor="middle" x="348" y="-205.93" font-family="Times,serif" font-size="14.00">~</text>
<text text-anchor="middle" x="348" y="-189.43" font-family="Times,serif" font-size="14.00">Deterministic</text>
</g>
<!-- p_white&#45;&gt;individual_status_obs -->
<g id="edge20" class="edge">
<title>p_white&#45;&gt;individual_status_obs</title>
<path fill="none" stroke="black" d="M320.35,-181.93C304.38,-165.72 283.92,-144.97 265.8,-126.59"/>
<polygon fill="black" stroke="black" points="268.78,-124.63 259.27,-119.96 263.79,-129.54 268.78,-124.63"/>
</g>
<!-- p_asian&#45;&gt;individual_status_obs -->
<g id="edge21" class="edge">
<title>p_asian&#45;&gt;individual_status_obs</title>
<path fill="none" stroke="black" d="M123.65,-181.93C139.62,-165.72 160.08,-144.97 178.2,-126.59"/>
<polygon fill="black" stroke="black" points="180.21,-129.54 184.73,-119.96 175.22,-124.63 180.21,-129.54"/>
</g>
<!-- mu_black_log_odds&#45;&gt;p_black -->
<g id="edge9" class="edge">
<title>mu_black_log_odds&#45;&gt;p_black</title>
<path fill="none" stroke="black" d="M222,-299.08C222,-284.74 222,-267.07 222,-251.4"/>
<polygon fill="black" stroke="black" points="225.5,-251.41 222,-241.41 218.5,-251.41 225.5,-251.41"/>
</g>
<!-- mu_black_log_odds&#45;&gt;black_rates_obs -->
<g id="edge14" class="edge">
<title>mu_black_log_odds&#45;&gt;black_rates_obs</title>
<path fill="none" stroke="black" d="M267.09,-299.13C276.06,-294.6 285.61,-290.47 295,-287.63 428.7,-247.24 474.9,-301.96 608,-259.63 616.91,-256.8 625.9,-252.88 634.5,-248.49"/>
<polygon fill="black" stroke="black" points="635.91,-251.71 643.05,-243.89 632.59,-245.55 635.91,-251.71"/>
</g>
<!-- mu_white_log_odds&#45;&gt;p_white -->
<g id="edge8" class="edge">
<title>mu_white_log_odds&#45;&gt;p_white</title>
<path fill="none" stroke="black" d="M362.35,-299.08C359.97,-284.6 357.02,-266.72 354.42,-250.94"/>
<polygon fill="black" stroke="black" points="357.93,-250.69 352.85,-241.39 351.02,-251.82 357.93,-250.69"/>
</g>
<!-- mu_white_log_odds&#45;&gt;white_rates_obs -->
<g id="edge17" class="edge">
<title>mu_white_log_odds&#45;&gt;white_rates_obs</title>
<path fill="none" stroke="black" d="M430.96,-305.91C453.22,-299.16 478.51,-292.26 502,-287.63 620.37,-264.31 657.29,-297 772,-259.63 780.89,-256.74 789.87,-252.78 798.46,-248.38"/>
<polygon fill="black" stroke="black" points="799.88,-251.59 807.01,-243.76 796.55,-245.43 799.88,-251.59"/>
</g>
<!-- beta_white -->
<g id="node12" class="node">
<title>beta_white</title>
<ellipse fill="none" stroke="black" cx="367" cy="-445.61" rx="53.21" ry="40.66"/>
<text text-anchor="middle" x="367" y="-457.06" font-family="Times,serif" font-size="14.00">beta_white</text>
<text text-anchor="middle" x="367" y="-440.56" font-family="Times,serif" font-size="14.00">~</text>
<text text-anchor="middle" x="367" y="-424.06" font-family="Times,serif" font-size="14.00">Normal</text>
</g>
<!-- beta_white&#45;&gt;mu_white_log_odds -->
<g id="edge2" class="edge">
<title>beta_white&#45;&gt;mu_white_log_odds</title>
<path fill="none" stroke="black" d="M367,-404.6C367,-392.89 367,-380.11 367,-368.45"/>
<polygon fill="black" stroke="black" points="370.5,-368.77 367,-358.77 363.5,-368.77 370.5,-368.77"/>
</g>
</g>
</svg>
